<svg xmlns="http://www.w3.org/2000/svg" width="786" height="54" fill="none" viewBox="0 0 786 54">
  <path fill="#E0E0E0" fill-rule="evenodd" d="M2.5 5.287a2.668 2.668 0 1 1 1 0v5.38c0 8.56 6.94 15.5 15.5 15.5h358c7.716 0 14.195 5.296 16 12.453 1.804-7.156 8.284-12.453 16-12.453h358c8.56 0 15.5-6.94 15.5-15.5v-5.38a2.668 2.668 0 1 1 1 0v5.38c0 9.112-7.387 16.5-16.5 16.5H409c-8.56 0-15.5 6.94-15.5 15.5v5.38a2.668 2.668 0 1 1-1 0v-5.38c0-8.56-6.94-15.5-15.5-15.5H19c-9.113 0-16.5-7.388-16.5-16.5v-5.38Zm390 0a2.668 2.668 0 1 1 1 0v13.38h-1V5.287Z" clip-rule="evenodd"/>
</svg>