<svg width="1554" height="563" viewBox="0 0 1554 563" fill="none" xmlns="http://www.w3.org/2000/svg">
<rect x="1.70532" y="7.00757" width="143.75" height="150" rx="45" fill="#0E0D0D"/>
<rect x="381.136" y="405.606" width="150" height="156.522" rx="45" fill="#0E0D0D"/>
<rect x="1404" width="150" height="156.522" rx="45" fill="#0E0D0D"/>
<rect x="1404" y="403" width="150" height="156.522" rx="45" fill="#FEBBD0"/>
<rect y="405.606" width="150" height="154.957" rx="45" fill="#0E0D0D"/>
<rect x="190.994" y="207.196" width="150" height="154.265" rx="45" fill="#0B1121"/>
<rect x="1009" y="403" width="150" height="158.813" rx="45" fill="#3178C6"/>
<rect x="1208.21" y="207.196" width="150" height="156.522" rx="45" fill="#E9E9E9"/>
<path d="M51 38H95V69H73L51 38ZM51 69H73L95 100H73V131L51 100V69Z" fill="white"/>
<path d="M269 254C257 254 249.5 260.667 246.5 274C251 267.333 256.25 264.833 262.25 266.5C265.673 267.451 268.12 270.211 270.828 273.265C275.241 278.241 280.347 284 291.5 284C303.5 284 311 277.333 314 264C309.5 270.667 304.25 273.167 298.25 271.5C294.827 270.549 292.38 267.789 289.672 264.735C285.259 259.759 280.153 254 269 254ZM246.5 284C234.5 284 227 290.667 224 304C228.5 297.333 233.75 294.833 239.75 296.5C243.173 297.451 245.62 300.211 248.328 303.265C252.741 308.241 257.847 314 269 314C281 314 288.5 307.333 291.5 294C287 300.667 281.75 303.167 275.75 301.5C272.327 300.549 269.88 297.789 267.172 294.735C262.759 289.759 257.653 284 246.5 284Z" fill="url(#paint0_linear_1275_2)"/>
<mask id="mask0_1275_2" style="mask-type:alpha" maskUnits="userSpaceOnUse" x="1230" y="232" width="107" height="106">
<path d="M1283.09 337.34C1312.41 337.34 1336.18 313.759 1336.18 284.67C1336.18 255.581 1312.41 232 1283.09 232C1253.77 232 1230 255.581 1230 284.67C1230 313.759 1253.77 337.34 1283.09 337.34Z" fill="black"/>
</mask>
<g mask="url(#mask0_1275_2)">
<path d="M1283.09 335.584C1311.43 335.584 1334.41 312.789 1334.41 284.67C1334.41 256.551 1311.43 233.756 1283.09 233.756C1254.75 233.756 1231.77 256.551 1231.77 284.67C1231.77 312.789 1254.75 335.584 1283.09 335.584Z" fill="black" stroke="white" stroke-width="6"/>
<path d="M1318.19 324.184L1270.79 263.602H1261.85V305.72H1269V272.605L1312.58 328.471C1314.55 327.165 1316.42 325.732 1318.19 324.184Z" fill="url(#paint1_linear_1275_2)"/>
<path d="M1304.91 263.602H1297.84V305.738H1304.91V263.602Z" fill="url(#paint2_linear_1275_2)"/>
</g>
<line x1="104.196" y1="475.905" x2="76.1961" y2="512.905" stroke="white" stroke-width="3"/>
<line x1="99.1956" y1="438.906" x2="39.1956" y2="518.099" stroke="white" stroke-width="3"/>
<path d="M455.647 542C447.784 542 440.243 538.359 434.683 531.878C429.124 525.396 426 516.606 426 507.44C426 498.274 429.124 489.484 434.683 483.002C440.243 476.521 447.784 472.88 455.647 472.88V542ZM455.647 434H426V468.56H455.647V434ZM474.176 468.56C478.108 468.56 481.878 466.739 484.658 463.499C487.438 460.258 489 455.863 489 451.28C489 446.697 487.438 442.302 484.658 439.061C481.878 435.821 478.108 434 474.176 434C470.245 434 466.475 435.821 463.695 439.061C460.915 442.302 459.353 446.697 459.353 451.28C459.353 455.863 460.915 460.258 463.695 463.499C466.475 466.739 470.245 468.56 474.176 468.56Z" fill="white"/>
<path d="M1104.65 531.974V543.195C1106.57 544.13 1108.85 544.831 1111.47 545.299C1114.09 545.766 1116.86 546 1119.77 546C1122.6 546 1125.29 545.743 1127.84 545.229C1130.39 544.714 1132.63 543.867 1134.55 542.687C1136.47 541.506 1137.99 539.963 1139.11 538.058C1140.23 536.153 1140.79 533.798 1140.79 530.993C1140.79 528.959 1140.47 527.176 1139.83 525.645C1139.2 524.124 1138.26 522.737 1137.06 521.56C1135.86 520.368 1134.41 519.299 1132.72 518.352C1131.03 517.405 1129.13 516.511 1127.01 515.67C1125.46 515.062 1124.07 514.472 1122.83 513.899C1121.6 513.326 1120.55 512.742 1119.69 512.146C1118.83 511.55 1118.16 510.918 1117.7 510.252C1117.23 509.586 1116.99 508.832 1116.99 507.99C1116.99 507.219 1117.2 506.524 1117.62 505.904C1118.04 505.285 1118.63 504.753 1119.4 504.309C1120.16 503.865 1121.1 503.52 1122.21 503.274C1123.31 503.029 1124.55 502.906 1125.9 502.906C1126.89 502.906 1127.93 502.976 1129.02 503.117C1130.12 503.257 1131.22 503.473 1132.33 503.765C1133.44 504.056 1134.52 504.426 1135.57 504.87C1136.58 505.297 1137.55 505.814 1138.47 506.413V495.928C1136.67 495.274 1134.7 494.789 1132.57 494.473C1130.44 494.158 1128 494 1125.24 494C1122.43 494 1119.77 494.286 1117.25 494.859C1114.74 495.432 1112.53 496.326 1110.62 497.541C1108.71 498.757 1107.2 500.306 1106.09 502.188C1104.98 504.069 1104.43 506.319 1104.43 508.937C1104.43 512.28 1105.45 515.132 1107.48 517.493C1109.51 519.854 1112.6 521.852 1116.74 523.489C1118.26 524.08 1119.78 524.699 1121.28 525.347C1122.69 525.955 1123.9 526.586 1124.92 527.241C1125.94 527.895 1126.75 528.608 1127.34 529.379C1127.93 530.151 1128.23 531.028 1128.23 532.01C1128.23 532.716 1128.04 533.412 1127.67 534.026C1127.31 534.645 1126.74 535.183 1125.99 535.639C1125.24 536.094 1124.31 536.451 1123.18 536.708C1122.06 536.965 1120.75 537.094 1119.25 537.094C1116.69 537.094 1114.15 536.667 1111.64 535.814C1109.12 534.961 1106.79 533.681 1104.65 531.974ZM1084.95 504.051H1100.15V494.812H1057.79V504.051H1072.92V545.188H1084.95V504.051Z" fill="white"/>
<path d="M1511.69 62.1432C1510.59 61.7615 1509.48 61.4079 1508.37 61.0828C1508.56 60.307 1508.73 59.5406 1508.88 58.7877C1511.39 46.4236 1509.75 36.4628 1504.15 33.1832C1498.77 30.0392 1489.99 33.3176 1481.11 41.1559C1480.24 41.9298 1479.38 42.726 1478.55 43.5437C1477.99 43 1477.42 42.4668 1476.84 41.9444C1467.54 33.5634 1458.22 30.031 1452.62 33.32C1447.25 36.4738 1445.66 45.8376 1447.92 57.5554C1448.14 58.7159 1448.4 59.8704 1448.68 61.0179C1447.36 61.3984 1446.09 61.8035 1444.87 62.2346C1433.96 66.0932 1427 72.1399 1427 78.412C1427 84.8898 1434.48 91.3873 1445.83 95.3271C1446.76 95.6452 1447.68 95.94 1448.62 96.2111C1448.32 97.447 1448.05 98.6912 1447.81 99.9423C1445.66 111.457 1447.34 120.599 1452.69 123.733C1458.22 126.969 1467.5 123.643 1476.54 115.626C1477.27 114.974 1477.99 114.304 1478.69 113.616C1479.59 114.501 1480.52 115.361 1481.47 116.194C1490.23 123.838 1498.87 126.925 1504.22 123.783C1509.75 120.537 1511.54 110.716 1509.21 98.7663C1509.03 97.8302 1508.82 96.8987 1508.59 95.9727C1509.25 95.7767 1509.89 95.575 1510.51 95.3651C1522.32 91.3951 1530 84.9764 1530 78.412C1530 72.117 1522.81 66.0295 1511.69 62.1432ZM1509.13 91.1268C1508.56 91.3159 1507.98 91.4984 1507.4 91.676C1506.09 87.4879 1504.33 83.0349 1502.18 78.4336C1504.23 73.9422 1505.93 69.5459 1507.19 65.3852C1508.25 65.6947 1509.27 66.0209 1510.25 66.3651C1519.79 69.6953 1525.6 74.6183 1525.6 78.412C1525.6 82.4526 1519.32 87.6982 1509.13 91.1268ZM1504.9 99.6336C1505.93 104.917 1506.07 109.694 1505.39 113.429C1504.78 116.785 1503.54 119.022 1502.02 119.919C1498.77 121.825 1491.83 119.347 1484.34 112.809C1483.46 112.035 1482.6 111.235 1481.75 110.412C1484.66 107.191 1487.56 103.446 1490.39 99.2874C1495.37 98.839 1500.07 98.1057 1504.34 97.1049C1504.55 97.9652 1504.73 98.8088 1504.9 99.6336ZM1462.11 119.589C1458.94 120.725 1456.42 120.758 1454.89 119.865C1451.64 117.963 1450.29 110.622 1452.13 100.775C1452.35 99.6117 1452.6 98.4545 1452.89 97.305C1457.1 98.2523 1461.77 98.9333 1466.77 99.3441C1469.62 103.414 1472.6 107.154 1475.61 110.43C1474.97 111.057 1474.31 111.669 1473.65 112.264C1469.65 115.809 1465.64 118.324 1462.11 119.589ZM1447.26 91.1019C1442.24 89.3596 1438.09 87.0956 1435.24 84.6249C1432.69 82.4049 1431.4 80.2004 1431.4 78.412C1431.4 74.6057 1436.99 69.7509 1446.32 66.4513C1447.45 66.0511 1448.63 65.6734 1449.86 65.319C1451.15 69.5736 1452.84 74.0222 1454.88 78.5206C1452.82 83.0855 1451.1 87.6051 1449.8 91.91C1448.95 91.6618 1448.1 91.3924 1447.26 91.1019ZM1452.24 56.6975C1450.3 46.6583 1451.59 39.0854 1454.82 37.1847C1458.27 35.1603 1465.89 38.0466 1473.92 45.2836C1474.44 45.7565 1474.96 46.2391 1475.47 46.731C1472.47 49.9922 1469.52 53.705 1466.69 57.7506C1461.85 58.2062 1457.21 58.9379 1452.95 59.9183C1452.68 58.851 1452.45 57.7768 1452.24 56.6975ZM1496.67 67.8314C1495.66 66.0662 1494.62 64.3233 1493.54 62.6038C1496.82 63.0255 1499.97 63.5853 1502.93 64.2697C1502.04 67.1573 1500.93 70.1759 1499.63 73.2709C1498.68 71.4379 1497.69 69.6244 1496.67 67.8314ZM1478.55 49.9224C1480.58 52.1538 1482.61 54.6449 1484.61 57.348C1480.56 57.1536 1476.49 57.1528 1472.44 57.3455C1474.44 54.6674 1476.49 52.1795 1478.55 49.9224ZM1460.31 67.862C1459.3 69.6405 1458.33 71.4428 1457.41 73.2672C1456.13 70.1833 1455.03 67.1507 1454.13 64.2223C1457.07 63.5551 1460.21 63.0096 1463.47 62.5956C1462.38 64.3256 1461.33 66.0818 1460.31 67.862ZM1463.57 94.546C1460.19 94.1639 1457.01 93.6465 1454.07 92.9973C1454.98 90.0166 1456.1 86.9196 1457.41 83.7694C1458.34 85.5952 1459.32 87.3986 1460.33 89.1779C1461.38 91.0072 1462.46 92.7989 1463.57 94.546ZM1478.67 107.216C1476.59 104.933 1474.51 102.406 1472.47 99.6895C1474.45 99.7679 1476.46 99.8079 1478.5 99.8079C1480.6 99.8079 1482.67 99.7602 1484.72 99.6679C1482.71 102.434 1480.69 104.964 1478.67 107.216ZM1499.67 83.6086C1501.05 86.7934 1502.21 89.8741 1503.13 92.8038C1500.14 93.4954 1496.92 94.0524 1493.52 94.466C1494.61 92.7146 1495.67 90.9413 1496.69 89.1473C1497.72 87.3238 1498.72 85.4771 1499.67 83.6086ZM1492.87 86.9163C1491.31 89.6668 1489.67 92.3652 1487.93 95.007C1484.79 95.2326 1481.65 95.3447 1478.5 95.3431C1475.29 95.3431 1472.18 95.2418 1469.17 95.0442C1467.4 92.4084 1465.72 89.7054 1464.14 86.9408C1462.57 84.1909 1461.1 81.3814 1459.75 78.5185C1461.1 75.655 1462.56 72.8442 1464.13 70.0922C1465.69 67.3394 1467.36 64.6484 1469.12 62.0239C1472.18 61.7888 1475.33 61.6663 1478.5 61.6663C1481.69 61.6663 1484.83 61.79 1487.9 62.0268C1489.64 64.6473 1491.3 67.3295 1492.86 70.0685C1494.43 72.8145 1495.91 75.6116 1497.3 78.4553C1495.92 81.328 1494.45 84.1502 1492.87 86.9163ZM1501.95 37.0516C1505.4 39.0703 1506.74 47.2108 1504.57 57.8861C1504.44 58.5672 1504.28 59.2609 1504.11 59.9644C1499.84 58.9632 1495.2 58.2189 1490.34 57.7563C1487.51 53.6662 1484.58 49.9477 1481.63 46.7286C1482.4 45.9738 1483.19 45.2386 1484 44.5237C1491.61 37.8082 1498.71 35.1566 1501.95 37.0516ZM1478.5 69.078C1483.58 69.078 1487.7 73.257 1487.7 78.412C1487.7 83.5669 1483.58 87.746 1478.5 87.746C1473.42 87.746 1469.3 83.5669 1469.3 78.412C1469.3 73.257 1473.42 69.078 1478.5 69.078Z" fill="#00D8FF"/>
<path d="M1512.59 463.793C1512.41 463.58 1512.23 463.366 1512.04 463.165C1511.85 462.964 1511.68 462.738 1511.49 462.537C1511.31 462.335 1511.13 462.109 1510.95 461.908C1510.76 461.707 1510.58 461.481 1510.4 461.28C1510.21 461.079 1510.04 460.852 1509.85 460.651C1509.66 460.45 1509.49 460.224 1509.3 460.023C1509.12 459.822 1508.94 459.595 1508.76 459.394C1514.19 465.521 1517.3 473.857 1517.42 482.597C1517.42 503.424 1499 520.367 1476.36 520.367C1463.68 520.367 1452.34 515.05 1444.79 506.717L1445.34 507.345L1445.89 507.974L1446.44 508.602L1446.98 509.231L1447.53 509.859L1448.08 510.487L1448.63 511.116C1456.16 519.801 1467.75 525.394 1480.74 525.394C1503.38 525.394 1521.79 508.451 1521.79 487.687C1521.79 478.813 1518.47 470.405 1512.59 463.793Z" fill="black"/>
<path d="M1514.79 483.192C1514.79 502.634 1497.78 518.394 1476.79 518.394C1455.81 518.394 1438.79 502.634 1438.79 483.192C1438.79 471.138 1445.31 460.491 1455.32 454.176C1465.33 447.862 1471.56 441.394 1476.79 441.394C1482.03 441.394 1486.5 446.673 1498.27 454.176C1508.28 460.491 1514.79 471.138 1514.79 483.192Z" fill="#FBF0DF"/>
<path d="M1514.79 482.852C1514.79 480.331 1514.49 477.822 1513.92 475.394C1510.92 518.362 1466.33 520.427 1448.79 507.575C1456.68 514.755 1466.4 518.568 1476.37 518.388C1497.56 518.388 1514.79 502.453 1514.79 482.852Z" fill="#F6DECE"/>
<path d="M1462.73 451.76C1467.7 448.36 1474.3 441.978 1480.79 441.965C1479.8 441.597 1478.75 441.404 1477.7 441.394C1475.01 441.394 1472.15 442.98 1468.53 445.366C1467.28 446.203 1465.98 447.129 1464.6 448.094C1462.01 449.921 1459.04 451.989 1455.7 454.057C1445.12 460.591 1438.79 471.364 1438.79 482.884V484.394C1445.53 457.229 1457.77 455.161 1462.73 451.76Z" fill="#FFFEFC"/>
<path fillRule="evenodd" clipRule="evenodd" d="M1473.75 444.439C1473.77 447.309 1473.22 450.15 1472.16 452.766C1471.1 455.383 1469.55 457.713 1467.61 459.599C1467.3 459.903 1467.54 460.487 1467.93 460.316C1471.61 458.724 1476.58 453.958 1474.48 444.342C1474.39 443.794 1473.75 443.94 1473.75 444.439ZM1476.23 444.439C1477.56 446.866 1478.41 449.586 1478.71 452.413C1479.02 455.239 1478.77 458.105 1477.98 460.815C1477.85 461.24 1478.32 461.605 1478.59 461.252C1480.98 457.848 1483.06 451.089 1476.82 443.794C1476.5 443.478 1476.01 443.965 1476.23 444.39V444.439ZM1479.24 444.232C1481.33 445.881 1483.08 448.011 1484.37 450.477C1485.66 452.944 1486.46 455.689 1486.72 458.529C1486.71 458.632 1486.73 458.735 1486.79 458.817C1486.84 458.9 1486.92 458.955 1487.01 458.973C1487.1 458.99 1487.2 458.967 1487.28 458.91C1487.35 458.852 1487.41 458.764 1487.43 458.663C1488.43 454.42 1487.86 447.186 1479.6 443.43C1479.16 443.235 1478.88 443.892 1479.24 444.183V444.232ZM1459.09 456.876C1461.58 456.048 1463.88 454.646 1465.85 452.761C1467.82 450.875 1469.41 448.549 1470.52 445.934C1470.72 445.496 1471.34 445.667 1471.24 446.153C1469.35 455.879 1463.03 457.909 1459.1 457.642C1458.69 457.654 1458.7 457.009 1459.09 456.876Z" fill="#CCBEA7"/>
<path d="M1476.29 520.394C1453.96 520.394 1435.79 503.454 1435.79 482.63C1435.79 470.063 1442.47 458.338 1453.65 451.313C1456.89 449.302 1459.66 447.279 1462.14 445.507C1463.5 444.527 1464.78 443.61 1466.02 442.755C1469.81 440.141 1473.05 438.394 1476.29 438.394C1479.53 438.394 1482.36 439.902 1485.91 442.34C1486.99 443.057 1488.07 443.836 1489.22 444.69C1491.91 446.626 1494.95 448.812 1498.94 451.313C1510.12 458.338 1516.79 470.051 1516.79 482.63C1516.79 503.454 1498.63 520.394 1476.29 520.394ZM1476.29 441.536C1473.68 441.536 1470.89 443.107 1467.38 445.47C1466.16 446.299 1464.9 447.216 1463.56 448.171C1461.05 449.981 1458.16 452.03 1454.92 454.078C1444.64 460.55 1438.49 471.219 1438.49 482.63C1438.49 501.72 1455.45 517.253 1476.29 517.253C1497.14 517.253 1514.09 501.72 1514.09 482.63C1514.09 471.219 1507.95 460.55 1497.66 454.103C1493.57 451.59 1490.39 449.227 1487.81 447.367C1486.63 446.525 1485.55 445.746 1484.57 445.055C1481.3 442.793 1478.91 441.536 1476.29 441.536Z" fill="black"/>
<path d="M1484.29 491.788C1483.8 494.099 1482.69 496.172 1481.11 497.705C1479.93 499.029 1478.4 499.86 1476.76 500.067C1475.07 499.893 1473.49 499.06 1472.26 497.705C1470.7 496.164 1469.61 494.093 1469.13 491.788C1469.11 491.651 1469.12 491.512 1469.16 491.381C1469.2 491.25 1469.26 491.131 1469.35 491.033C1469.43 490.934 1469.53 490.86 1469.65 490.814C1469.76 490.769 1469.88 490.754 1470 490.77H1483.43C1483.55 490.756 1483.67 490.772 1483.78 490.819C1483.89 490.865 1483.99 490.94 1484.08 491.038C1484.16 491.136 1484.22 491.254 1484.26 491.384C1484.3 491.514 1484.31 491.652 1484.29 491.788Z" fill="#B71422"/>
<path d="M1472.26 497.806C1473.48 499.161 1475.06 500.002 1476.75 500.193C1478.43 499.999 1480.01 499.159 1481.22 497.806C1481.61 497.387 1481.98 496.938 1482.31 496.461C1481.64 495.583 1480.82 494.873 1479.9 494.374C1478.99 493.875 1477.99 493.597 1476.98 493.559C1475.89 493.589 1474.83 493.922 1473.88 494.531C1472.93 495.139 1472.13 496.004 1471.53 497.052C1471.78 497.316 1472 497.567 1472.26 497.806Z" fill="#FF6164"/>
<path d="M1472.44 496.813C1472.98 496.008 1473.67 495.355 1474.46 494.902C1475.25 494.449 1476.12 494.209 1477 494.2C1478.63 494.255 1480.18 495.013 1481.35 496.323C1481.6 496.009 1481.84 495.682 1482.07 495.356C1480.69 493.834 1478.86 492.968 1476.94 492.931C1475.92 492.941 1474.92 493.212 1473.99 493.725C1473.07 494.238 1472.26 494.979 1471.62 495.896C1471.88 496.219 1472.15 496.525 1472.44 496.813Z" fill="black"/>
<path d="M1476.72 500.821C1474.9 500.637 1473.19 499.752 1471.87 498.308C1470.19 496.663 1469 494.441 1468.49 491.964C1468.45 491.743 1468.46 491.516 1468.5 491.299C1468.55 491.081 1468.64 490.879 1468.77 490.707C1468.92 490.499 1469.11 490.334 1469.32 490.223C1469.53 490.112 1469.77 490.058 1470 490.067H1483.43C1483.67 490.061 1483.9 490.116 1484.11 490.226C1484.32 490.337 1484.51 490.502 1484.66 490.707C1484.79 490.88 1484.88 491.082 1484.92 491.3C1484.97 491.517 1484.97 491.744 1484.93 491.964C1484.42 494.441 1483.23 496.663 1481.55 498.308C1480.23 499.749 1478.53 500.634 1476.72 500.821ZM1470 491.524C1469.83 491.524 1469.78 491.612 1469.77 491.637C1470.23 493.785 1471.27 495.708 1472.74 497.127C1473.82 498.35 1475.22 499.124 1476.72 499.326C1478.21 499.126 1479.61 498.362 1480.69 497.152C1482.16 495.731 1483.19 493.808 1483.65 491.662C1483.63 491.622 1483.59 491.59 1483.56 491.57C1483.52 491.55 1483.47 491.543 1483.43 491.549L1470 491.524Z" fill="black"/>
<path d="M1493.19 492.567C1496.7 492.567 1499.55 490.632 1499.55 488.245C1499.55 485.858 1496.7 483.923 1493.19 483.923C1489.67 483.923 1486.82 485.858 1486.82 488.245C1486.82 490.632 1489.67 492.567 1493.19 492.567Z" fill="#FEBBD0"/>
<path d="M1460.23 492.567C1463.75 492.567 1466.6 490.632 1466.6 488.245C1466.6 485.858 1463.75 483.923 1460.23 483.923C1456.72 483.923 1453.87 485.858 1453.87 488.245C1453.87 490.632 1456.72 492.567 1460.23 492.567Z" fill="#FEBBD0"/>
<path fillRule="evenodd" clipRule="evenodd" d="M1463.23 486.511C1464.41 486.514 1465.58 486.11 1466.56 485.351C1467.55 484.592 1468.32 483.511 1468.78 482.247C1469.23 480.982 1469.35 479.59 1469.12 478.246C1468.89 476.902 1468.32 475.668 1467.48 474.699C1466.65 473.729 1465.58 473.069 1464.41 472.801C1463.25 472.532 1462.04 472.669 1460.95 473.192C1459.85 473.716 1458.91 474.603 1458.25 475.742C1457.59 476.88 1457.24 478.219 1457.24 479.589C1457.24 481.423 1457.87 483.181 1458.99 484.479C1460.12 485.777 1461.64 486.508 1463.23 486.511ZM1490.19 486.511C1491.38 486.521 1492.54 486.124 1493.54 485.369C1494.53 484.615 1495.3 483.537 1495.77 482.273C1496.23 481.009 1496.35 479.616 1496.12 478.269C1495.9 476.923 1495.33 475.685 1494.49 474.712C1493.66 473.739 1492.59 473.075 1491.42 472.803C1490.26 472.532 1489.05 472.666 1487.95 473.189C1486.85 473.711 1485.91 474.598 1485.25 475.738C1484.59 476.877 1484.24 478.218 1484.24 479.589C1484.24 481.417 1484.86 483.172 1485.98 484.47C1487.09 485.767 1488.61 486.501 1490.19 486.511Z" fill="black"/>
<path fillRule="evenodd" clipRule="evenodd" d="M1461.38 480.029C1461.82 480.031 1462.26 479.881 1462.63 479.596C1463 479.312 1463.29 478.907 1463.47 478.432C1463.64 477.957 1463.68 477.434 1463.6 476.928C1463.51 476.423 1463.3 475.959 1462.98 475.594C1462.67 475.229 1462.27 474.98 1461.83 474.878C1461.39 474.777 1460.94 474.828 1460.53 475.024C1460.12 475.221 1459.76 475.554 1459.51 475.982C1459.27 476.41 1459.13 476.913 1459.13 477.428C1459.13 478.116 1459.37 478.775 1459.79 479.263C1460.21 479.75 1460.78 480.025 1461.38 480.029ZM1488.34 480.029C1488.79 480.031 1489.22 479.881 1489.6 479.596C1489.97 479.312 1490.26 478.907 1490.43 478.432C1490.6 477.957 1490.65 477.434 1490.56 476.928C1490.48 476.423 1490.26 475.959 1489.95 475.594C1489.64 475.229 1489.23 474.98 1488.8 474.878C1488.36 474.777 1487.91 474.828 1487.49 475.024C1487.08 475.221 1486.73 475.554 1486.48 475.982C1486.23 476.41 1486.1 476.913 1486.1 477.428C1486.1 478.111 1486.33 478.767 1486.75 479.254C1487.16 479.74 1487.73 480.019 1488.32 480.029H1488.34Z" fill="white"/>
<defs>
<linearGradient id="paint0_linear_1275_2" x1="-26.02" y1="2174" x2="8133.77" y2="6408.31" gradientUnits="userSpaceOnUse">
<stop stop-color="#2298BD"/>
<stop offset="0.611" stop-color="#15C1B8"/>
<stop offset="1" stop-color="#0ED7B5"/>
</linearGradient>
<linearGradient id="paint1_linear_1275_2" x1="1294.3" y1="300.178" x2="1315.04" y2="326.089" gradientUnits="userSpaceOnUse">
<stop stop-color="white"/>
<stop offset="1" stop-color="white" stop-opacity="0"/>
</linearGradient>
<linearGradient id="paint2_linear_1275_2" x1="1301.38" y1="263.602" x2="1301.26" y2="294.546" gradientUnits="userSpaceOnUse">
<stop stop-color="white"/>
<stop offset="1" stop-color="white" stop-opacity="0"/>
</linearGradient>
</defs>
</svg>
