<svg width="1550" height="550" viewBox="0 0 1550 550" fill="none" xmlns="http://www.w3.org/2000/svg">
<rect x="1.70532" y="8.00757" width="143.75" height="150" rx="45" fill="#0E0D0D"/>
<rect x="381.136" y="406.606" width="150" height="156.522" rx="45" fill="#0E0D0D"/>
<rect x="1013.81" y="406.606" width="150" height="156.522" rx="45" fill="#0E0D0D"/>
<rect x="1399.21" y="406.606" width="150" height="156.522" rx="45" fill="#FEBBD0"/>
<rect y="406.606" width="150" height="154.957" rx="45" fill="#0E0D0D"/>
<rect x="190.994" y="208.196" width="150" height="154.265" rx="45" fill="#0B1121"/>
<rect x="1399.21" width="150" height="158.813" rx="45" fill="#3178C6"/>
<rect x="1208.21" y="208.196" width="150" height="156.522" rx="45" fill="#E9E9E9"/>
<path d="M51 39H95V70H73L51 39ZM51 70H73L95 101H73V132L51 101V70Z" fill="white"/>
<path d="M269 255C257 255 249.5 261.667 246.5 275C251 268.333 256.25 265.833 262.25 267.5C265.673 268.451 268.12 271.211 270.828 274.265C275.241 279.241 280.347 285 291.5 285C303.5 285 311 278.333 314 265C309.5 271.667 304.25 274.167 298.25 272.5C294.827 271.549 292.38 268.789 289.672 265.735C285.259 260.759 280.153 255 269 255ZM246.5 285C234.5 285 227 291.667 224 305C228.5 298.333 233.75 295.833 239.75 297.5C243.173 298.451 245.62 301.211 248.328 304.265C252.741 309.241 257.847 315 269 315C281 315 288.5 308.333 291.5 295C287 301.667 281.75 304.167 275.75 302.5C272.327 301.549 269.88 298.789 267.172 295.735C262.759 290.759 257.653 285 246.5 285Z" fill="url(#paint0_linear_1274_59)"/>
<mask id="mask0_1274_59" style="mask-type:alpha" maskUnits="userSpaceOnUse" x="1230" y="233" width="107" height="106">
<path d="M1283.09 338.34C1312.41 338.34 1336.18 314.759 1336.18 285.67C1336.18 256.581 1312.41 233 1283.09 233C1253.77 233 1230 256.581 1230 285.67C1230 314.759 1253.77 338.34 1283.09 338.34Z" fill="black"/>
</mask>
<g mask="url(#mask0_1274_59)">
<path d="M1283.09 336.584C1311.43 336.584 1334.41 313.789 1334.41 285.67C1334.41 257.551 1311.43 234.756 1283.09 234.756C1254.75 234.756 1231.77 257.551 1231.77 285.67C1231.77 313.789 1254.75 336.584 1283.09 336.584Z" fill="black" stroke="white" stroke-width="6"/>
<path d="M1318.19 325.184L1270.79 264.602H1261.85V306.72H1269V273.605L1312.58 329.471C1314.55 328.165 1316.42 326.732 1318.19 325.184Z" fill="url(#paint1_linear_1274_59)"/>
<path d="M1304.91 264.602H1297.84V306.738H1304.91V264.602Z" fill="url(#paint2_linear_1274_59)"/>
</g>
<line x1="104.196" y1="476.905" x2="76.1961" y2="513.905" stroke="white" stroke-width="3"/>
<line x1="99.1956" y1="439.906" x2="39.1956" y2="519.099" stroke="white" stroke-width="3"/>
<path d="M455.647 543C447.784 543 440.243 539.359 434.683 532.878C429.124 526.396 426 517.606 426 508.44C426 499.274 429.124 490.484 434.683 484.002C440.243 477.521 447.784 473.88 455.647 473.88V543ZM455.647 435H426V469.56H455.647V435ZM474.176 469.56C478.108 469.56 481.878 467.739 484.658 464.499C487.438 461.258 489 456.863 489 452.28C489 447.697 487.438 443.302 484.658 440.061C481.878 436.821 478.108 435 474.176 435C470.245 435 466.475 436.821 463.695 440.061C460.915 443.302 459.353 447.697 459.353 452.28C459.353 456.863 460.915 461.258 463.695 464.499C466.475 467.739 470.245 469.56 474.176 469.56Z" fill="white"/>
<path d="M1494.86 128.974V140.195C1496.78 141.13 1499.05 141.831 1501.67 142.299C1504.3 142.766 1507.06 143 1509.97 143C1512.8 143 1515.5 142.743 1518.05 142.229C1520.6 141.714 1522.83 140.867 1524.75 139.687C1526.68 138.506 1528.2 136.963 1529.32 135.058C1530.44 133.153 1531 130.798 1531 127.993C1531 125.959 1530.68 124.176 1530.04 122.645C1529.41 121.124 1528.46 119.737 1527.27 118.56C1526.06 117.368 1524.61 116.299 1522.93 115.352C1521.24 114.405 1519.33 113.511 1517.21 112.67C1515.66 112.062 1514.27 111.472 1513.04 110.899C1511.81 110.326 1510.76 109.742 1509.9 109.146C1509.03 108.55 1508.37 107.918 1507.9 107.252C1507.43 106.586 1507.2 105.832 1507.2 104.99C1507.2 104.219 1507.41 103.524 1507.83 102.904C1508.25 102.285 1508.84 101.753 1509.6 101.309C1510.37 100.865 1511.3 100.52 1512.41 100.274C1513.52 100.029 1514.75 99.9062 1516.11 99.9062C1517.09 99.9062 1518.13 99.9765 1519.23 100.117C1520.33 100.257 1521.43 100.473 1522.54 100.765C1523.64 101.056 1524.72 101.426 1525.77 101.87C1526.79 102.297 1527.76 102.814 1528.67 103.413V92.9285C1526.87 92.274 1524.91 91.7889 1522.78 91.4733C1520.65 91.1576 1518.2 91 1515.44 91C1512.63 91 1509.97 91.2864 1507.46 91.8592C1504.95 92.4316 1502.73 93.3258 1500.82 94.5413C1498.91 95.7572 1497.41 97.3058 1496.3 99.1876C1495.19 101.069 1494.63 103.319 1494.63 105.937C1494.63 109.28 1495.65 112.132 1497.68 114.493C1499.72 116.854 1502.8 118.852 1506.94 120.489C1508.47 121.08 1509.98 121.699 1511.49 122.347C1512.89 122.955 1514.1 123.586 1515.13 124.241C1516.15 124.895 1516.96 125.608 1517.55 126.379C1518.14 127.151 1518.43 128.028 1518.43 129.01C1518.44 129.716 1518.25 130.412 1517.88 131.026C1517.51 131.645 1516.95 132.183 1516.2 132.639C1515.45 133.094 1514.51 133.451 1513.39 133.708C1512.27 133.965 1510.96 134.094 1509.45 134.094C1506.89 134.094 1504.35 133.667 1501.84 132.814C1499.33 131.961 1497 130.681 1494.86 128.974ZM1475.16 101.051H1490.36V91.8125H1448V101.051H1463.12V142.188H1475.16V101.051Z" fill="white"/>
<path d="M1121.22 470.143C1120.16 469.762 1119.08 469.408 1118 469.083C1118.18 468.307 1118.35 467.541 1118.5 466.788C1120.94 454.424 1119.34 444.463 1113.9 441.183C1108.68 438.039 1100.15 441.318 1091.54 449.156C1090.69 449.93 1089.86 450.726 1089.05 451.544C1088.5 451 1087.95 450.467 1087.39 449.944C1078.36 441.563 1069.31 438.031 1063.87 441.32C1058.66 444.474 1057.12 453.838 1059.31 465.555C1059.53 466.716 1059.78 467.87 1060.05 469.018C1058.77 469.398 1057.53 469.803 1056.35 470.235C1045.76 474.093 1039 480.14 1039 486.412C1039 492.89 1046.26 499.387 1057.29 503.327C1058.18 503.645 1059.08 503.94 1059.99 504.211C1059.69 505.447 1059.43 506.691 1059.2 507.942C1057.11 519.457 1058.75 528.599 1063.94 531.733C1069.31 534.969 1078.32 531.643 1087.1 523.626C1087.81 522.974 1088.5 522.304 1089.18 521.616C1090.06 522.501 1090.96 523.361 1091.89 524.194C1100.39 531.838 1108.78 534.925 1113.97 531.783C1119.34 528.537 1121.08 518.716 1118.82 506.766C1118.64 505.83 1118.44 504.899 1118.22 503.973C1118.85 503.777 1119.47 503.575 1120.08 503.365C1131.54 499.395 1139 492.976 1139 486.412C1139 480.117 1132.02 474.029 1121.22 470.143ZM1118.73 499.127C1118.19 499.316 1117.63 499.498 1117.05 499.676C1115.79 495.488 1114.08 491.035 1111.99 486.434C1113.98 481.942 1115.63 477.546 1116.86 473.385C1117.88 473.695 1118.87 474.021 1119.83 474.365C1129.08 477.695 1134.73 482.618 1134.73 486.412C1134.73 490.453 1128.63 495.698 1118.73 499.127ZM1114.63 507.634C1115.63 512.917 1115.77 517.694 1115.11 521.429C1114.51 524.785 1113.31 527.022 1111.83 527.919C1108.68 529.825 1101.94 527.347 1094.67 520.809C1093.81 520.035 1092.98 519.235 1092.16 518.412C1094.98 515.191 1097.79 511.446 1100.54 507.287C1105.38 506.839 1109.94 506.106 1114.09 505.105C1114.29 505.965 1114.47 506.809 1114.63 507.634ZM1073.09 527.589C1070.01 528.725 1067.56 528.758 1066.08 527.865C1062.92 525.963 1061.61 518.622 1063.4 508.775C1063.61 507.612 1063.86 506.454 1064.13 505.305C1068.23 506.252 1072.76 506.933 1077.61 507.344C1080.37 511.414 1083.27 515.154 1086.19 518.43C1085.57 519.057 1084.94 519.669 1084.29 520.264C1080.41 523.809 1076.52 526.324 1073.09 527.589ZM1058.67 499.102C1053.79 497.36 1049.76 495.096 1047 492.625C1044.52 490.405 1043.27 488.2 1043.27 486.412C1043.27 482.606 1048.7 477.751 1057.76 474.451C1058.85 474.051 1060 473.673 1061.2 473.319C1062.45 477.574 1064.09 482.022 1066.07 486.521C1064.06 491.086 1062.4 495.605 1061.14 499.91C1060.31 499.662 1059.48 499.392 1058.67 499.102ZM1063.5 464.698C1061.62 454.658 1062.87 447.085 1066.01 445.185C1069.36 443.16 1076.76 446.047 1084.55 453.284C1085.06 453.757 1085.56 454.239 1086.05 454.731C1083.15 457.992 1080.28 461.705 1077.53 465.751C1072.83 466.206 1068.33 466.938 1064.19 467.918C1063.94 466.851 1063.71 465.777 1063.5 464.698ZM1106.64 475.831C1105.66 474.066 1104.65 472.323 1103.6 470.604C1106.79 471.026 1109.85 471.585 1112.72 472.27C1111.85 475.157 1110.78 478.176 1109.52 481.271C1108.59 479.438 1107.63 477.624 1106.64 475.831ZM1089.05 457.922C1091.02 460.154 1092.99 462.645 1094.93 465.348C1091 465.154 1087.05 465.153 1083.11 465.346C1085.06 462.667 1087.05 460.18 1089.05 457.922ZM1071.34 475.862C1070.36 477.641 1069.42 479.443 1068.52 481.267C1067.28 478.183 1066.21 475.151 1065.34 472.222C1068.2 471.555 1071.24 471.01 1074.41 470.596C1073.35 472.326 1072.33 474.082 1071.34 475.862ZM1074.5 502.546C1071.23 502.164 1068.14 501.647 1065.29 500.997C1066.17 498.017 1067.26 494.92 1068.53 491.769C1069.43 493.595 1070.38 495.399 1071.36 497.178C1072.37 499.007 1073.42 500.799 1074.5 502.546ZM1089.17 515.216C1087.14 512.933 1085.12 510.406 1083.15 507.69C1085.06 507.768 1087.02 507.808 1089 507.808C1091.04 507.808 1093.05 507.76 1095.04 507.668C1093.09 510.434 1091.12 512.964 1089.17 515.216ZM1109.56 491.609C1110.89 494.793 1112.02 497.874 1112.91 500.804C1110.01 501.495 1106.88 502.052 1103.59 502.466C1104.64 500.715 1105.67 498.941 1106.66 497.147C1107.66 495.324 1108.63 493.477 1109.56 491.609ZM1102.96 494.916C1101.44 497.667 1099.84 500.365 1098.16 503.007C1095.11 503.233 1092.06 503.345 1089 503.343C1085.89 503.343 1082.86 503.242 1079.95 503.044C1078.22 500.408 1076.59 497.705 1075.06 494.941C1073.53 492.191 1072.11 489.381 1070.79 486.519C1072.11 483.655 1073.53 480.844 1075.05 478.092C1076.56 475.339 1078.18 472.648 1079.89 470.024C1082.87 469.789 1085.92 469.666 1089 469.666C1092.1 469.666 1095.15 469.79 1098.12 470.027C1099.82 472.647 1101.43 475.33 1102.94 478.069C1104.46 480.814 1105.9 483.612 1107.25 486.455C1105.92 489.328 1104.48 492.15 1102.96 494.916ZM1111.77 445.052C1115.12 447.07 1116.42 455.211 1114.31 465.886C1114.18 466.567 1114.03 467.261 1113.87 467.964C1109.72 466.963 1105.21 466.219 1100.49 465.756C1097.75 461.666 1094.9 457.948 1092.04 454.729C1092.79 453.974 1093.56 453.239 1094.34 452.524C1101.72 445.808 1108.62 443.157 1111.77 445.052ZM1089 477.078C1093.93 477.078 1097.93 481.257 1097.93 486.412C1097.93 491.567 1093.93 495.746 1089 495.746C1084.07 495.746 1080.07 491.567 1080.07 486.412C1080.07 481.257 1084.07 477.078 1089 477.078Z" fill="#00D8FF"/>
<path d="M1507.79 463.399C1507.62 463.185 1507.43 462.972 1507.24 462.771C1507.06 462.57 1506.88 462.343 1506.7 462.142C1506.51 461.941 1506.34 461.715 1506.15 461.514C1505.96 461.313 1505.79 461.086 1505.6 460.885C1505.42 460.684 1505.24 460.458 1505.06 460.257C1504.87 460.056 1504.69 459.83 1504.51 459.628C1504.32 459.427 1504.15 459.201 1503.96 459C1509.39 465.127 1512.5 473.462 1512.62 482.202C1512.62 503.029 1494.21 519.972 1471.56 519.972C1458.89 519.972 1447.54 514.656 1440 506.322L1440.55 506.951L1441.09 507.579L1441.64 508.208L1442.19 508.836L1442.74 509.465L1443.28 510.093L1443.83 510.722C1451.36 519.407 1462.96 525 1475.94 525C1498.58 525 1517 508.057 1517 487.293C1517 478.419 1513.67 470.01 1507.79 463.399Z" fill="black"/>
<path d="M1510 482.798C1510 502.24 1492.99 518 1472 518C1451.01 518 1434 502.24 1434 482.798C1434 470.744 1440.51 460.097 1450.52 453.782C1460.53 447.468 1466.77 441 1472 441C1477.23 441 1481.71 446.279 1493.48 453.782C1503.49 460.097 1510 470.744 1510 482.798Z" fill="#FBF0DF"/>
<path d="M1510 482.458C1509.99 479.937 1509.7 477.428 1509.12 475C1506.12 517.968 1461.53 520.033 1444 507.181C1451.88 514.361 1461.61 518.174 1471.58 517.994C1492.76 517.994 1510 502.058 1510 482.458Z" fill="#F6DECE"/>
<path d="M1457.93 451.366C1462.9 447.966 1469.51 441.584 1476 441.571C1475 441.203 1473.96 441.01 1472.91 441C1470.22 441 1467.35 442.586 1463.74 444.971C1462.48 445.809 1461.18 446.735 1459.8 447.699C1457.21 449.526 1454.24 451.595 1450.91 453.663C1440.33 460.197 1434 470.969 1434 482.49V484C1440.74 456.835 1452.98 454.767 1457.93 451.366Z" fill="#FFFEFC"/>
<path fill-rule="evenodd" clip-rule="evenodd" d="M1468.96 444.044C1468.97 446.915 1468.43 449.756 1467.37 452.372C1466.31 454.988 1464.75 457.319 1462.81 459.205C1462.5 459.509 1462.74 460.092 1463.14 459.922C1466.82 458.329 1471.78 453.564 1469.69 443.947C1469.6 443.4 1468.96 443.546 1468.96 444.044ZM1471.43 444.044C1472.77 446.472 1473.62 449.192 1473.92 452.018C1474.22 454.845 1473.97 457.711 1473.19 460.42C1473.06 460.846 1473.53 461.211 1473.79 460.858C1476.18 457.454 1478.26 450.695 1472.02 443.4C1471.71 443.084 1471.21 443.57 1471.43 443.996V444.044ZM1474.44 443.838C1476.54 445.487 1478.29 447.617 1479.58 450.083C1480.87 452.549 1481.67 455.295 1481.92 458.135C1481.91 458.237 1481.93 458.34 1481.99 458.423C1482.05 458.506 1482.13 458.561 1482.22 458.578C1482.31 458.596 1482.4 458.573 1482.48 458.515C1482.56 458.458 1482.61 458.369 1482.63 458.269C1483.63 454.026 1483.07 446.792 1474.81 443.035C1474.37 442.841 1474.08 443.497 1474.44 443.789V443.838ZM1454.3 456.481C1456.79 455.654 1459.09 454.251 1461.06 452.366C1463.03 450.481 1464.62 448.155 1465.72 445.54C1465.92 445.102 1466.54 445.272 1466.44 445.759C1464.56 455.485 1458.24 457.515 1454.31 457.247C1453.89 457.26 1453.9 456.615 1454.3 456.481Z" fill="#CCBEA7"/>
<path d="M1471.5 520C1449.17 520 1431 503.06 1431 482.236C1431 469.669 1437.67 457.944 1448.85 450.919C1452.09 448.908 1454.87 446.885 1457.34 445.113C1458.7 444.133 1459.99 443.215 1461.23 442.361C1465.02 439.747 1468.26 438 1471.5 438C1474.74 438 1477.57 439.508 1481.11 441.946C1482.19 442.662 1483.27 443.442 1484.43 444.296C1487.12 446.231 1490.15 448.418 1494.15 450.919C1505.33 457.944 1512 469.656 1512 482.236C1512 503.06 1493.83 520 1471.5 520ZM1471.5 441.142C1468.89 441.142 1466.1 442.713 1462.59 445.075C1461.37 445.905 1460.11 446.822 1458.77 447.777C1456.25 449.587 1453.37 451.635 1450.13 453.684C1439.85 460.156 1433.7 470.825 1433.7 482.236C1433.7 501.325 1450.66 516.858 1471.5 516.858C1492.34 516.858 1509.3 501.325 1509.3 482.236C1509.3 470.825 1503.15 460.156 1492.86 453.709C1488.78 451.195 1485.59 448.833 1483.01 446.973C1481.84 446.131 1480.76 445.352 1479.77 444.661C1476.5 442.398 1474.11 441.142 1471.5 441.142Z" fill="black"/>
<path d="M1479.5 491.393C1479.01 493.705 1477.9 495.777 1476.32 497.311C1475.14 498.635 1473.6 499.466 1471.96 499.673C1470.28 499.499 1468.69 498.665 1467.47 497.311C1465.91 495.77 1464.81 493.699 1464.33 491.393C1464.32 491.257 1464.33 491.117 1464.37 490.987C1464.4 490.856 1464.47 490.736 1464.55 490.638C1464.64 490.54 1464.74 490.465 1464.85 490.42C1464.96 490.374 1465.09 490.359 1465.2 490.376H1478.64C1478.76 490.361 1478.87 490.378 1478.99 490.424C1479.1 490.471 1479.2 490.546 1479.28 490.644C1479.36 490.742 1479.43 490.86 1479.46 490.99C1479.5 491.12 1479.51 491.258 1479.5 491.393Z" fill="#B71422"/>
<path d="M1467.47 497.411C1468.69 498.767 1470.27 499.608 1471.95 499.798C1473.64 499.605 1475.21 498.764 1476.43 497.411C1476.82 496.993 1477.18 496.543 1477.52 496.067C1476.85 495.189 1476.03 494.479 1475.11 493.979C1474.19 493.48 1473.2 493.203 1472.18 493.165C1471.1 493.194 1470.04 493.528 1469.09 494.136C1468.14 494.745 1467.33 495.61 1466.74 496.657C1466.99 496.921 1467.21 497.173 1467.47 497.411Z" fill="#FF6164"/>
<path d="M1467.64 496.419C1468.18 495.614 1468.87 494.96 1469.66 494.508C1470.45 494.055 1471.32 493.815 1472.2 493.806C1473.83 493.861 1475.39 494.618 1476.56 495.929C1476.81 495.615 1477.05 495.288 1477.28 494.961C1475.89 493.439 1474.06 492.574 1472.15 492.537C1471.13 492.547 1470.12 492.818 1469.2 493.331C1468.28 493.843 1467.47 494.585 1466.83 495.502C1467.08 495.824 1467.36 496.131 1467.64 496.419Z" fill="black"/>
<path d="M1471.92 500.426C1470.11 500.243 1468.4 499.358 1467.08 497.914C1465.39 496.269 1464.21 494.046 1463.69 491.569C1463.65 491.349 1463.66 491.122 1463.71 490.904C1463.76 490.687 1463.85 490.485 1463.97 490.313C1464.12 490.105 1464.31 489.939 1464.52 489.828C1464.74 489.717 1464.97 489.664 1465.2 489.672H1478.64C1478.87 489.667 1479.1 489.721 1479.32 489.832C1479.53 489.943 1479.72 490.107 1479.87 490.313C1479.99 490.485 1480.08 490.688 1480.13 490.905C1480.18 491.123 1480.18 491.35 1480.14 491.569C1479.63 494.046 1478.44 496.269 1476.75 497.914C1475.43 499.355 1473.73 500.24 1471.92 500.426ZM1465.2 491.13C1465.03 491.13 1464.99 491.218 1464.98 491.243C1465.44 493.391 1466.48 495.314 1467.95 496.733C1469.02 497.956 1470.42 498.729 1471.92 498.931C1473.42 498.732 1474.81 497.968 1475.89 496.758C1477.36 495.336 1478.4 493.414 1478.86 491.268C1478.83 491.228 1478.8 491.196 1478.76 491.176C1478.72 491.156 1478.68 491.149 1478.64 491.155L1465.2 491.13Z" fill="black"/>
<path d="M1488.39 492.172C1491.91 492.172 1494.76 490.237 1494.76 487.851C1494.76 485.464 1491.91 483.529 1488.39 483.529C1484.87 483.529 1482.02 485.464 1482.02 487.851C1482.02 490.237 1484.87 492.172 1488.39 492.172Z" fill="#FEBBD0"/>
<path d="M1455.44 492.172C1458.96 492.172 1461.81 490.237 1461.81 487.851C1461.81 485.464 1458.96 483.529 1455.44 483.529C1451.92 483.529 1449.07 485.464 1449.07 487.851C1449.07 490.237 1451.92 492.172 1455.44 492.172Z" fill="#FEBBD0"/>
<path fill-rule="evenodd" clip-rule="evenodd" d="M1458.43 486.117C1459.62 486.119 1460.78 485.716 1461.77 484.956C1462.76 484.197 1463.53 483.117 1463.98 481.852C1464.44 480.588 1464.56 479.195 1464.33 477.852C1464.1 476.508 1463.53 475.274 1462.69 474.304C1461.85 473.335 1460.78 472.674 1459.62 472.406C1458.45 472.138 1457.25 472.274 1456.15 472.798C1455.05 473.322 1454.12 474.209 1453.46 475.347C1452.8 476.486 1452.45 477.825 1452.45 479.195C1452.45 481.028 1453.08 482.787 1454.2 484.085C1455.32 485.383 1456.84 486.114 1458.43 486.117ZM1485.4 486.117C1486.59 486.127 1487.75 485.729 1488.74 484.975C1489.73 484.22 1490.51 483.143 1490.97 481.879C1491.43 480.615 1491.56 479.221 1491.33 477.875C1491.1 476.529 1490.54 475.291 1489.7 474.318C1488.86 473.345 1487.79 472.68 1486.63 472.409C1485.46 472.138 1484.25 472.272 1483.16 472.795C1482.06 473.317 1481.12 474.204 1480.46 475.344C1479.8 476.483 1479.44 477.823 1479.44 479.195C1479.44 481.023 1480.07 482.778 1481.18 484.075C1482.3 485.373 1483.81 486.107 1485.4 486.117Z" fill="black"/>
<path fill-rule="evenodd" clip-rule="evenodd" d="M1456.58 479.634C1457.03 479.637 1457.46 479.486 1457.84 479.202C1458.21 478.918 1458.5 478.513 1458.67 478.038C1458.84 477.563 1458.89 477.039 1458.8 476.534C1458.72 476.029 1458.5 475.564 1458.19 475.199C1457.88 474.834 1457.47 474.585 1457.04 474.484C1456.6 474.383 1456.15 474.434 1455.73 474.63C1455.32 474.826 1454.97 475.16 1454.72 475.588C1454.47 476.016 1454.34 476.519 1454.34 477.034C1454.34 477.721 1454.58 478.381 1455 478.868C1455.42 479.356 1455.99 479.631 1456.58 479.634ZM1483.55 479.634C1483.99 479.637 1484.43 479.486 1484.8 479.202C1485.17 478.918 1485.46 478.513 1485.64 478.038C1485.81 477.563 1485.85 477.039 1485.77 476.534C1485.68 476.029 1485.47 475.564 1485.15 475.199C1484.84 474.834 1484.44 474.585 1484 474.484C1483.56 474.383 1483.11 474.434 1482.7 474.63C1482.29 474.826 1481.93 475.16 1481.68 475.588C1481.44 476.016 1481.3 476.519 1481.3 477.034C1481.3 477.717 1481.54 478.373 1481.95 478.859C1482.37 479.346 1482.93 479.624 1483.52 479.634H1483.55Z" fill="white"/>
<defs>
<linearGradient id="paint0_linear_1274_59" x1="-26.02" y1="2175" x2="8133.77" y2="6409.31" gradientUnits="userSpaceOnUse">
<stop stop-color="#2298BD"/>
<stop offset="0.611" stop-color="#15C1B8"/>
<stop offset="1" stop-color="#0ED7B5"/>
</linearGradient>
<linearGradient id="paint1_linear_1274_59" x1="1294.3" y1="301.178" x2="1315.04" y2="327.089" gradientUnits="userSpaceOnUse">
<stop stop-color="white"/>
<stop offset="1" stop-color="white" stop-opacity="0"/>
</linearGradient>
<linearGradient id="paint2_linear_1274_59" x1="1301.38" y1="264.602" x2="1301.26" y2="295.546" gradientUnits="userSpaceOnUse">
<stop stop-color="white"/>
<stop offset="1" stop-color="white" stop-opacity="0"/>
</linearGradient>
</defs>
</svg>
